<svg xmlns="http://www.w3.org/2000/svg" version="1.1" id="svg2" xml:space="preserve" width="201.07" height="183.278"><defs id="defs6"><clipPath clipPathUnits="userSpaceOnUse" id="clipPath40"><path d="M1521.11 2852.49c13.3 99.19 100.95 156.29 133.61 131.62 33.7-25.45 63.46-70.91 80.54-145.03 33.64-145.95 26.46-296.95-24.61-345.11-30.1-28.41-150.35-38.04-150.35-38.04s-120.11-54.09-124.8-151.33c-5.28-109.56 127.77-375.78 8.57-447.5-119.18-71.72-249.42-222.72-446.84-235.83-200.386-13.31-401.617 240.61-329.203 326.1 154.227 182.05 290.282 472.8 532.233 510.59 108.91 17 169.37 12.69 168.86 123.31 0 0-35.22-7.05-60.79 15.58-32.2 28.49-51.99 111.31 2.32 124.25 59.2 14.09 75.54-90.34 75.54-90.34s111.25 45.24 134.92 221.73z" id="path38"/></clipPath><clipPath clipPathUnits="userSpaceOnUse" id="clipPath68"><path d="M3093.89 2883.11c7.1 99.82-179.82 114.65-212.48 89.99-33.7-25.45-54.1-59.9-71.19-134.02-33.63-145.95-26.45-296.95 24.61-345.11 30.11-28.41 150.35-38.04 150.35-38.04s120.11-54.09 124.81-151.33c5.28-109.56-127.76-375.78-8.58-447.5 119.18-71.72 249.43-222.72 446.85-235.83 200.38-13.31 401.62 240.61 329.2 326.1-154.23 182.05-290.28 472.8-532.23 510.59-108.91 17-169.37 12.69-168.86 123.31 0 0 24.65.63 50.21 23.25 32.21 28.51 52.59 104.3 2.63 129.71-30.59 15.55-57.59-1.56-52.79-6.85l-12.03-56.31s-83.55 28.72-70.5 212.04z" id="path66"/></clipPath></defs><g id="g10" transform="matrix(1.33333 0 0 -1.33333 -282.4 494.133)" fill-opacity="1" stroke="none" stroke-width=".1"><g id="textSays" transform="translate(43.51 -17.404)" fill-rule="evenodd"><path d="M232.777 370.258c0 5.112-4.151 9.263-9.262 9.263h-45.962c-5.112 0-9.263-4.151-9.263-9.263v-22.139c0-5.113 4.151-9.263 9.263-9.263h6.076l-5.565-13.14 21.315 13.14h24.136c5.111 0 9.262 4.15 9.262 9.263v22.139" id="path92" fill="red"/><path d="M178.882 370.63h45.662v-1.881h-45.662v1.881" id="path94" fill="#fff"/><path d="M178.882 361.236h45.662v-1.881h-45.662v1.881" id="path96" fill="#fff"/><path d="M178.882 351.105h45.662v-1.881h-45.662v1.881" id="path98" fill="#fff"/></g><path id="starLeft" d="M255.292 255.875a.718.718 0 00-.697.53l-.563 2.05a.724.724 0 01-.213.344l-1.58 1.422a.72.72 0 00.29 1.229l2.05.564c.132.036.251.11.344.212l1.422 1.58a.718.718 0 001.229-.291l.564-2.05a.72.72 0 01.212-.343l1.581-1.422a.72.72 0 00-.291-1.23l-2.05-.563a.71.71 0 01-.344-.213l-1.421-1.58a.711.711 0 00-.533-.24" fill="#e7e0ea" fill-rule="nonzero"/><g id="g862" transform="translate(40.258 -40.76)" fill-rule="evenodd"><path d="M275.087 400.283c8.224 11.745 24.437 14.605 36.181 6.38 11.746-8.224 14.603-24.437 6.38-36.182-1.517-2.165-5.286-5.578-5.286-5.578l2.466-14.71-11.522 10.159s-2.232-.539-3.367-.697a25.887 25.887 0 00-18.473 4.447c-11.744 8.223-14.604 24.435-6.38 36.18" id="path88" fill="#efe4ff"/><path d="M296.084 388.516s-3.273 5.868-7.921 4.704c-2.908-.728-4.547-4.912-2.63-9.654 2.308-5.713 11.883-12.548 11.883-12.548s8.873 9.675 9.757 16.445c.799 6.123-7.925 10.514-11.089 1.053" id="path90" fill="#ff2a2a"/></g><path id="starRight" d="M302.567 233.141a.717.717 0 00-.697.53l-.564 2.05a.723.723 0 01-.212.344l-1.58 1.422a.72.72 0 00.29 1.23l2.05.562a.724.724 0 01.344.213l1.421 1.581a.71.71 0 00.533.238.717.717 0 00.697-.529l.563-2.05a.724.724 0 01.213-.344l1.58-1.422a.72.72 0 00-.29-1.229l-2.049-.564a.725.725 0 01-.345-.213l-1.422-1.58a.71.71 0 00-.532-.239" fill="#e7e0ea" fill-rule="nonzero"/></g></svg>