<?xml version="1.0" encoding="UTF-8" standalone="no"?>
<!-- Created with Inkscape (http://www.inkscape.org/) -->

<svg
   xmlns:dc="http://purl.org/dc/elements/1.1/"
   xmlns:cc="http://creativecommons.org/ns#"
   xmlns:rdf="http://www.w3.org/1999/02/22-rdf-syntax-ns#"
   xmlns:svg="http://www.w3.org/2000/svg"
   xmlns="http://www.w3.org/2000/svg"
   xmlns:sodipodi="http://sodipodi.sourceforge.net/DTD/sodipodi-0.dtd"
   xmlns:inkscape="http://www.inkscape.org/namespaces/inkscape"
   version="1.1"
   id="svg2"
   xml:space="preserve"
   viewBox="0 0 201.06968 183.27837"
   sodipodi:docname="chat.svg"
   inkscape:version="0.92.4 (5da689c313, 2019-01-14)"
   width="201.06967"
   height="183.27837"><metadata
     id="metadata8"><rdf:RDF><cc:Work
         rdf:about=""><dc:format>image/svg+xml</dc:format><dc:type
           rdf:resource="http://purl.org/dc/dcmitype/StillImage" /><dc:title></dc:title></cc:Work></rdf:RDF></metadata><defs
     id="defs6"><clipPath
       clipPathUnits="userSpaceOnUse"
       id="clipPath40"><path
         d="m 1521.11,2852.49 c 13.3,99.19 100.95,156.29 133.61,131.62 33.7,-25.45 63.46,-70.91 80.54,-145.03 33.64,-145.95 26.46,-296.95 -24.61,-345.11 -30.1,-28.41 -150.35,-38.04 -150.35,-38.04 0,0 -120.11,-54.09 -124.8,-151.33 -5.28,-109.56 127.77,-375.78 8.57,-447.5 -119.18,-71.72 -249.42,-222.72 -446.84,-235.83 -200.386,-13.31 -401.617,240.61 -329.203,326.1 154.227,182.05 290.282,472.8 532.233,510.59 108.91,17 169.37,12.69 168.86,123.31 0,0 -35.22,-7.05 -60.79,15.58 -32.2,28.49 -51.99,111.31 2.32,124.25 59.2,14.09 75.54,-90.34 75.54,-90.34 0,0 111.25,45.24 134.92,221.73 z"
         id="path38"
         inkscape:connector-curvature="0" /></clipPath><clipPath
       clipPathUnits="userSpaceOnUse"
       id="clipPath68"><path
         d="m 3093.89,2883.11 c 7.1,99.82 -179.82,114.65 -212.48,89.99 -33.7,-25.45 -54.1,-59.9 -71.19,-134.02 -33.63,-145.95 -26.45,-296.95 24.61,-345.11 30.11,-28.41 150.35,-38.04 150.35,-38.04 0,0 120.11,-54.09 124.81,-151.33 5.28,-109.56 -127.76,-375.78 -8.58,-447.5 119.18,-71.72 249.43,-222.72 446.85,-235.83 200.38,-13.31 401.62,240.61 329.2,326.1 -154.23,182.05 -290.28,472.8 -532.23,510.59 -108.91,17 -169.37,12.69 -168.86,123.31 0,0 24.65,0.63 50.21,23.25 32.21,28.51 52.59,104.3 2.63,129.71 -30.59,15.55 -57.59,-1.56 -52.79,-6.85 l -12.03,-56.31 c 0,0 -83.55,28.72 -70.5,212.04 z"
         id="path66"
         inkscape:connector-curvature="0" /></clipPath></defs><sodipodi:namedview
     pagecolor="#ffffff"
     bordercolor="#666666"
     borderopacity="1"
     objecttolerance="10"
     gridtolerance="10"
     guidetolerance="10"
     inkscape:pageopacity="0"
     inkscape:pageshadow="2"
     inkscape:window-width="1147"
     inkscape:window-height="1403"
     id="namedview4"
     showgrid="false"
     inkscape:zoom="1.2066319"
     inkscape:cx="143.84818"
     inkscape:cy="-2.8422738"
     inkscape:window-x="1147"
     inkscape:window-y="0"
     inkscape:window-maximized="0"
     inkscape:current-layer="g10"
     fit-margin-top="0"
     fit-margin-left="0"
     fit-margin-right="0"
     fit-margin-bottom="0" /><g
     id="g10"
     inkscape:groupmode="layer"
     inkscape:label="ink_ext_XXXXXX"
     transform="matrix(1.3333333,0,0,-1.3333333,-282.39938,494.13311)"><g
       id="textSays"
       transform="translate(43.509543,-17.403817)"><path
         d="m 232.777,370.258 c 0,5.112 -4.151,9.263 -9.262,9.263 h -45.962 c -5.112,0 -9.263,-4.151 -9.263,-9.263 v -22.139 c 0,-5.113 4.151,-9.263 9.263,-9.263 h 6.076 l -5.565,-13.14 21.315,13.14 h 24.136 c 5.111,0 9.262,4.15 9.262,9.263 v 22.139"
         style="fill:#ff0000;fill-opacity:1;fill-rule:evenodd;stroke:none;stroke-width:0.1"
         id="path92"
         inkscape:connector-curvature="0" /><path
         d="m 178.882,370.63 h 45.662 v -1.881 h -45.662 v 1.881"
         style="fill:#ffffff;fill-opacity:1;fill-rule:evenodd;stroke:none;stroke-width:0.1"
         id="path94"
         inkscape:connector-curvature="0" /><path
         d="m 178.882,361.236 h 45.662 v -1.881 h -45.662 v 1.881"
         style="fill:#ffffff;fill-opacity:1;fill-rule:evenodd;stroke:none;stroke-width:0.1"
         id="path96"
         inkscape:connector-curvature="0" /><path
         d="m 178.882,351.105 h 45.662 v -1.881 h -45.662 v 1.881"
         style="fill:#ffffff;fill-opacity:1;fill-rule:evenodd;stroke:none;stroke-width:0.1"
         id="path98"
         inkscape:connector-curvature="0" /></g><path
       inkscape:connector-curvature="0"
       id="starLeft"
       style="fill:#e7e0ea;fill-opacity:1;fill-rule:nonzero;stroke:none;stroke-width:0.09999999"
       d="m 255.29202,255.87465 c -0.305,0 -0.604,0.193 -0.697,0.53 l -0.563,2.05 c -0.037,0.133 -0.111,0.252 -0.213,0.344 l -1.58,1.422 c -0.424,0.38 -0.259,1.078 0.29,1.229 l 2.05,0.564 c 0.132,0.036 0.251,0.11 0.344,0.212 l 1.422,1.581 c 0.147,0.163 0.34,0.239 0.532,0.239 0.305,0 0.604,-0.193 0.697,-0.53 l 0.564,-2.05 c 0.036,-0.132 0.11,-0.252 0.212,-0.344 l 1.581,-1.422 c 0.423,-0.38 0.258,-1.078 -0.291,-1.229 l -2.05,-0.564 c -0.133,-0.036 -0.252,-0.11 -0.344,-0.213 l -1.421,-1.58 c -0.147,-0.163 -0.341,-0.239 -0.533,-0.239" /><g
       id="g862"
       transform="translate(40.2581,-40.759457)"><path
         d="m 275.08671,400.28308 c 8.22393,11.74502 24.43727,14.60458 36.18153,6.38079 11.74581,-8.22449 14.60317,-24.43748 6.37921,-36.18248 -1.51596,-2.16503 -5.28537,-5.57824 -5.28537,-5.57824 l 2.46585,-14.70958 -11.52238,10.15803 c 0,0 -2.2314,-0.53847 -3.36664,-0.69701 -6.27388,-0.87221 -12.87915,0.53001 -18.47312,4.44698 -11.74422,8.22336 -14.60353,24.43527 -6.37902,36.18111"
         style="fill:#efe4ff;fill-opacity:1;fill-rule:evenodd;stroke:none;stroke-width:0.1"
         id="path88"
         inkscape:connector-curvature="0" /><path
         d="m 296.08405,388.51648 c 0,0 -3.273,5.868 -7.921,4.704 -2.908,-0.728 -4.547,-4.912 -2.63,-9.654 2.308,-5.713 11.883,-12.548 11.883,-12.548 0,0 8.873,9.675 9.757,16.445 0.799,6.123 -7.925,10.514 -11.089,1.053"
         style="fill:#ff2a2a;fill-opacity:1;fill-rule:evenodd;stroke:none;stroke-width:0.1"
         id="path90"
         inkscape:connector-curvature="0" /></g><path
       inkscape:connector-curvature="0"
       id="starRight"
       style="fill:#e7e0ea;fill-opacity:1;fill-rule:nonzero;stroke:none;stroke-width:0.09999999"
       d="m 302.56746,233.14107 c -0.305,0 -0.604,0.192 -0.697,0.53 l -0.564,2.049 c -0.036,0.133 -0.11,0.252 -0.212,0.345 l -1.581,1.422 c -0.423,0.38 -0.258,1.078 0.291,1.229 l 2.05,0.563 c 0.133,0.037 0.252,0.111 0.344,0.213 l 1.421,1.581 c 0.147,0.163 0.341,0.238 0.533,0.238 0.305,0 0.605,-0.192 0.697,-0.529 l 0.563,-2.05 c 0.037,-0.133 0.111,-0.252 0.213,-0.344 l 1.58,-1.422 c 0.424,-0.38 0.259,-1.079 -0.29,-1.229 l -2.049,-0.564 c -0.133,-0.037 -0.252,-0.11 -0.345,-0.213 l -1.422,-1.58 c -0.147,-0.163 -0.34,-0.239 -0.532,-0.239" /></g></svg>