<svg xmlns="http://www.w3.org/2000/svg" version="1.1" id="svg2" xml:space="preserve" viewBox="0 0 371.51 415.599"><defs id="defs6"><clipPath clipPathUnits="userSpaceOnUse" id="clipPath40"><path d="M1521.11 2852.49c13.3 99.19 100.95 156.29 133.61 131.62 33.7-25.45 63.46-70.91 80.54-145.03 33.64-145.95 26.46-296.95-24.61-345.11-30.1-28.41-150.35-38.04-150.35-38.04s-120.11-54.09-124.8-151.33c-5.28-109.56 127.77-375.78 8.57-447.5-119.18-71.72-249.42-222.72-446.84-235.83-200.386-13.31-401.617 240.61-329.203 326.1 154.227 182.05 290.282 472.8 532.233 510.59 108.91 17 169.37 12.69 168.86 123.31 0 0-35.22-7.05-60.79 15.58-32.2 28.49-51.99 111.31 2.32 124.25 59.2 14.09 75.54-90.34 75.54-90.34s111.25 45.24 134.92 221.73z" id="path38"/></clipPath><clipPath clipPathUnits="userSpaceOnUse" id="clipPath68"><path d="M3093.89 2883.11c7.1 99.82-179.82 114.65-212.48 89.99-33.7-25.45-54.1-59.9-71.19-134.02-33.63-145.95-26.45-296.95 24.61-345.11 30.11-28.41 150.35-38.04 150.35-38.04s120.11-54.09 124.81-151.33c5.28-109.56-127.76-375.78-8.58-447.5 119.18-71.72 249.43-222.72 446.85-235.83 200.38-13.31 401.62 240.61 329.2 326.1-154.23 182.05-290.28 472.8-532.23 510.59-108.91 17-169.37 12.69-168.86 123.31 0 0 24.65.63 50.21 23.25 32.21 28.51 52.59 104.3 2.63 129.71-30.59 15.55-57.59-1.56-52.79-6.85l-12.03-56.31s-83.55 28.72-70.5 212.04z" id="path66"/></clipPath></defs><g id="g10" transform="matrix(1.33333 0 0 -1.33333 -240.104 502.898)"><g id="smartphoneRight" fill-opacity="1" fill-rule="evenodd" stroke="none" stroke-width=".1"><path d="M443.026 265.765c1.62 4.659-3.359 9.049-5.983 11.614-3.652 3.57-5.826 4.239-5.826 4.239l-85.693 16.668c-6.363 1.247-13.311-2.754-15.508-8.93l-63.388-179.444c-1.53-3.079.812-15.732 5.516-17.865L362.52 74.34c6.363-1.247 13.312 2.755 15.508 8.931 0 0 57.493 160.913 64.998 182.494" id="path14" fill="#6d74c2"/><path d="M435.658 270.033c2.038 5.727-1.098 11.314-6.997 12.47l-83.807 16.42c-5.9 1.156-12.343-2.555-14.38-8.281l-63.836-179.417c-2.038-5.727 1.097-11.315 6.997-12.471l83.806-16.42c5.901-1.155 12.344 2.556 14.381 8.282l63.836 179.417" id="path16" fill="#434ea9"/><path d="M425.558 262.018c1.851 5.2-.996 10.273-6.353 11.323l-73.084 14.319c-5.357 1.05-11.208-2.319-13.059-7.52l-51.987-146.117c-1.851-5.201.996-10.275 6.354-11.325l73.084-14.318c5.356-1.05 11.208 2.32 13.058 7.521l51.987 146.117" id="path18" fill="#fff"/><path d="M323.611 112.908c3.692-1.749 4.661-6.603 2.166-10.844-2.495-4.241-7.511-6.26-11.201-4.513-3.691 1.749-4.661 6.603-2.166 10.845 2.495 4.24 7.51 6.26 11.201 4.512" id="path20" fill="#3a3c9c"/></g><g id="personRight"><path d="M328.214 296.05s3.639 16.575-15.117 17.248c-12.896.463-23.67 4.867-29.368 8.338-5.696 3.469-12.748-4.887-3.064-10.513 0 0-12.925 4.907-14.193-5.004-1.666-13.03 13.885-13.882 21.59-15.776 7.707-1.893 21.477-37.75 29.579-38.744 0 0 6.06 3.977 11.695 13.342 5.405 8.984 9.077 24.169-1.122 31.109" id="path58" fill="#30358b" fill-opacity="1" fill-rule="evenodd" stroke="none" stroke-width=".1"/><path d="M309.389 288.311c.71 9.982-17.982 11.465-21.248 8.999-3.37-2.545-5.41-5.99-7.119-13.402-3.363-14.595-2.645-29.695 2.461-34.511 3.011-2.841 15.035-3.804 15.035-3.804s12.011-5.409 12.481-15.133c.528-10.956-12.776-37.578-.858-44.75 11.918-7.172 24.943-22.272 44.685-23.583 20.038-1.331 40.162 24.061 32.92 32.61-15.423 18.205-29.028 47.28-53.223 51.059-10.891 1.7-16.937 1.269-16.886 12.331 0 0 2.465.063 5.021 2.325 3.221 2.851 5.259 10.43.263 12.971-3.059 1.555-5.759-.156-5.279-.685l-1.203-5.631s-8.355 2.872-7.05 21.204" id="path60" fill="#f7debf" fill-opacity="1" fill-rule="evenodd" stroke="none" stroke-width=".1"/><g transform="scale(.1)" id="g62"><g id="g64" clip-path="url(#clipPath68)" fill-opacity="1" fill-rule="evenodd" stroke="none"><path d="M3270.7 1578.96s-162.54 122.95-220.54 269.77c-52 131.58-1.64 282.85 30.22 288.95 68.5 13.09 161.18 201.57 232.15 365.06 31.64 72.89 621.32-400.49 728.14-508.83 106.83-108.32-273.03-405.97-389.87-461.42-116.86-55.44-380.1 46.47-380.1 46.47" id="path70" fill="#6d74c2"/><path d="M3040.91 2680.01c44.33 0 80.28-35.95 80.28-80.29s-35.95-80.28-80.28-80.28c-44.35 0-80.3 35.94-80.3 80.28s35.95 80.29 80.3 80.29" id="path72" fill="#f2557d"/><path d="M2746.13 2729.59c44.34 0 80.28-35.95 80.28-80.29s-35.94-80.28-80.28-80.28-80.29 35.94-80.29 80.28 35.95 80.29 80.29 80.29" id="path74" fill="#f2557d"/></g></g><path d="M329.849 235.22c-4.691-8.85-21.806-29.817-31.9-35.876-4.766-2.861-49.983 27.806-49.983 27.806s-7.597.745-2.973-6.657c4.64-7.424 39.065-48.697 58.332-42.883 19.266 5.813 48.838 33.324 50.903 45.263 2.676 15.475-18.019 24.343-24.379 12.347" id="path76" fill="#f7debf" fill-opacity="1" fill-rule="evenodd" stroke="none" stroke-width=".1"/><path d="M298.079 277.504c-.847.141-1.711-.812-1.931-2.13-.219-1.318.288-2.5 1.134-2.641.847-.142 1.711.812 1.931 2.129.219 1.318-.288 2.5-1.134 2.642" id="path78" fill="#33306f" fill-opacity="1" fill-rule="evenodd" stroke="none" stroke-width=".1"/><path d="M289.04 281.815l.028-.126.023-.106.003-.021.016-.126.016-.127.014-.128.014-.129.012-.128.012-.129.009-.129.01-.13.002-.048.004-.082.007-.129.004-.131.004-.131.003-.131.002-.13v-.263l-.002-.132-.003-.127v-.005l-.008-.132-.009-.131-.009-.133-.011-.132-.012-.132-.013-.132-.015-.133-.014-.132-.016-.133-.016-.132-.019-.133-.019-.132-.019-.133-.021-.133-.021-.132-.023-.133-.024-.133-.023-.133-.027-.131-.026-.133-.012-.063-.015-.07-.03-.132-.029-.132-.031-.132-.032-.132-.032-.132-.033-.132-.034-.132-.036-.131-.035-.132-.038-.13-.033-.118-.005-.014-.038-.13-.041-.131-.04-.13-.043-.13-.042-.13-.043-.129-.045-.131-.089-.257-.028-.074-.068-.182-.102-.254-.103-.254-.02-.047-.088-.204-.111-.249-.114-.248-.107-.226-.01-.021-.122-.244-.124-.242-.125-.241-.127-.239-.131-.237-.132-.235-.003-.004-.139-.225-.143-.228-.145-.225-.146-.223-.148-.22-.148-.22-.151-.217-.152-.213-.062-.087-.091-.124-.156-.209-.156-.206-.158-.203-.158-.201-.159-.198-.162-.196-.16-.193-.027-.032-.141-.153-.169-.181-.17-.179-.167-.178-.083-.017.003.085.143.196.141.2.137.204.111.173.025.034.141.205.138.206.136.212.135.213.133.216.13.219.127.22.074.133.051.091.126.225.123.227.12.23.117.232.115.233.112.236.11.238.105.234.002.004.111.238.111.238.106.24.105.242.101.242.099.245.008.021.091.223.095.246.094.246.073.202.018.046.09.247.087.248.06.178.026.071.086.249.042.124.041.124.04.125.04.125.039.125.038.125.036.126.005.014.033.112.036.125.035.125.036.126.035.125.032.126.033.125.031.127.032.126.03.126.028.126.015.066.014.06.029.125.027.127.026.126.026.126.024.126.025.126.022.125.023.126.021.126.02.126.019.126.019.125.016.126.016.126.016.125.014.125.014.126.012.124.011.125.01.125.001.006.014.119.012.125.011.124.011.125.009.124.008.123.007.124.006.124.005.123.002.079.002.045.005.124.002.122.001.123.001.123-.001.123-.002.122-.003.123-.005.123v.018l.003.103.002.123v.108l.245.044.062.006.249.014.025-.108" id="path80" fill="#33306f" fill-opacity="1" fill-rule="evenodd" stroke="none" stroke-width=".1"/><path d="M283.527 280.415c-.845.148-1.716-.8-1.945-2.116-.23-1.315.27-2.502 1.115-2.649.846-.147 1.716.8 1.945 2.116.23 1.316-.269 2.502-1.115 2.649" id="path82" fill="#33306f" fill-opacity="1" fill-rule="evenodd" stroke="none" stroke-width=".1"/><path d="M239.168 233.368c1.758-2.288 10.352-4.726 15.51-13.035.173-.28.876-4.373-1.919-4.724-1.634-.206-6.809.547-12.869 3.609-3.605 1.821-10.312 4.698-13.016 5.879-2.737 1.195-1.626 1.861.321 1.241 1.713-.545 7.828-2.206 7.828-2.206s-7.646 3.398-9.542 4.367c-1.714.877-2.358 2.411-.009 1.563 1.923-.696 9.226-3.799 9.226-3.799s-7.738 4.572-9.507 5.766c-1.209.818-.95 2.04 1.422.851 1.903-.955 9.453-4.737 9.453-4.737l-7.609 5.065c-1.784 1.189-1.819 2.753 1.268 1.035 2.326-1.293 7.993-3.839 11.164-5.45-1.216.975-3.862 2.932-3.621 5.471.047.491.361 1.106 1.9-.896" id="path84" fill="#f7debf" fill-opacity="1" fill-rule="evenodd" stroke="none" stroke-width=".1"/></g><g id="g862" transform="translate(-78.939 -34.186)" fill-opacity="1" fill-rule="evenodd" stroke="none" stroke-width=".1"><path d="M275.087 400.283c8.224 11.745 24.437 14.605 36.181 6.38 11.746-8.224 14.603-24.437 6.38-36.182-1.517-2.165-5.286-5.578-5.286-5.578l2.466-14.71-11.522 10.159s-2.232-.539-3.367-.697a25.887 25.887 0 00-18.473 4.447c-11.744 8.223-14.604 24.435-6.38 36.18" id="path88" fill="#efe4ff"/><path d="M296.084 388.516s-3.273 5.868-7.921 4.704c-2.908-.728-4.547-4.912-2.63-9.654 2.308-5.713 11.883-12.548 11.883-12.548s8.873 9.675 9.757 16.445c.799 6.123-7.925 10.514-11.089 1.053" id="path90" fill="#ff2a2a"/></g><path id="path60-3" d="M447.132 215.392a1.71 1.71 0 00-1.658 1.248l-1.39 4.877a1.713 1.713 0 01-.513.817l-3.8 3.357c-1.018.899-.64 2.567.666 2.939l4.877 1.388c.316.09.6.268.817.514l3.358 3.8c.35.397.817.582 1.279.582.723 0 1.432-.452 1.659-1.248l1.388-4.877c.09-.316.268-.6.515-.817l3.8-3.358c1.017-.899.638-2.567-.667-2.939l-4.877-1.388a1.72 1.72 0 01-.817-.514l-3.357-3.8a1.693 1.693 0 00-1.28-.582" fill="#e7e0ea" fill-opacity="1" fill-rule="nonzero" stroke="none" stroke-width=".1"/><path id="path58-6" d="M425.532 65.474c-3.388 0-6.774 1.306-9.145 3.747-4.982 5.124-4.646 11.818-2.104 16.179 2.274 3.9 6.1 6.053 10.45 6.053a14.31 14.31 0 003.614-.478c5.145-1.347 9.16-5.954 9.762-11.204.603-5.248-2.38-10.737-7.092-13.052-1.71-.84-3.598-1.245-5.485-1.245m-.776 23.326c-3.937 0-6.742-2.27-8.18-4.737-2.037-3.494-2.298-8.868 1.712-12.993 1.85-1.902 4.571-2.93 7.27-2.93 1.487 0 2.966.312 4.29.962 3.738 1.836 6.104 6.196 5.625 10.366-.473 4.122-3.753 7.882-7.797 8.939a11.486 11.486 0 01-2.92.393" fill="#e7e0ea" fill-opacity="1" fill-rule="nonzero" stroke="none" stroke-width=".1"/><path id="path76-7" d="M418.944 132.805a.717.717 0 00-.697.53l-.564 2.05a.71.71 0 01-.213.343l-1.58 1.422a.72.72 0 00.29 1.23l2.05.563a.72.72 0 01.345.213l1.422 1.58a.717.717 0 001.229-.29l.563-2.05a.732.732 0 01.213-.345l1.58-1.42a.72.72 0 00-.29-1.23l-2.05-.564a.73.73 0 01-.344-.213l-1.422-1.58a.707.707 0 00-.532-.239" fill="#e7e0ea" fill-opacity="1" fill-rule="nonzero" stroke="none" stroke-width=".1"/><path id="starRight" d="M183.37 239.714a.717.717 0 00-.696.53l-.564 2.05a.723.723 0 01-.212.344l-1.581 1.422a.72.72 0 00.29 1.23l2.05.562a.724.724 0 01.345.213l1.42 1.581a.71.71 0 00.534.238.717.717 0 00.697-.529l.563-2.05a.724.724 0 01.213-.344l1.58-1.422a.72.72 0 00-.29-1.229l-2.05-.564a.725.725 0 01-.344-.213l-1.422-1.58a.71.71 0 00-.532-.239" fill="#e7e0ea" fill-opacity="1" fill-rule="nonzero" stroke="none" stroke-width=".1"/></g></svg>