<svg xmlns="http://www.w3.org/2000/svg" version="1.1" id="svg2" xml:space="preserve" viewBox="0 0 331.983 343.177"><defs id="defs6"><clipPath clipPathUnits="userSpaceOnUse" id="clipPath40"><path d="M1521.11 2852.49c13.3 99.19 100.95 156.29 133.61 131.62 33.7-25.45 63.46-70.91 80.54-145.03 33.64-145.95 26.46-296.95-24.61-345.11-30.1-28.41-150.35-38.04-150.35-38.04s-120.11-54.09-124.8-151.33c-5.28-109.56 127.77-375.78 8.57-447.5-119.18-71.72-249.42-222.72-446.84-235.83-200.386-13.31-401.617 240.61-329.203 326.1 154.227 182.05 290.282 472.8 532.233 510.59 108.91 17 169.37 12.69 168.86 123.31 0 0-35.22-7.05-60.79 15.58-32.2 28.49-51.99 111.31 2.32 124.25 59.2 14.09 75.54-90.34 75.54-90.34s111.25 45.24 134.92 221.73z" id="path38"/></clipPath><clipPath clipPathUnits="userSpaceOnUse" id="clipPath68"><path d="M3093.89 2883.11c7.1 99.82-179.82 114.65-212.48 89.99-33.7-25.45-54.1-59.9-71.19-134.02-33.63-145.95-26.45-296.95 24.61-345.11 30.11-28.41 150.35-38.04 150.35-38.04s120.11-54.09 124.81-151.33c5.28-109.56-127.76-375.78-8.58-447.5 119.18-71.72 249.43-222.72 446.85-235.83 200.38-13.31 401.62 240.61 329.2 326.1-154.23 182.05-290.28 472.8-532.23 510.59-108.91 17-169.37 12.69-168.86 123.31 0 0 24.65.63 50.21 23.25 32.21 28.51 52.59 104.3 2.63 129.71-30.59 15.55-57.59-1.56-52.79-6.85l-12.03-56.31s-83.55 28.72-70.5 212.04z" id="path66"/></clipPath></defs><g id="g10" transform="matrix(1.33333 0 0 -1.33333 24.508 419.97)"><path id="path76" d="M10.396 227.905a.717.717 0 00-.697.529l-.564 2.05a.71.71 0 01-.213.344l-1.58 1.422a.72.72 0 00.29 1.23l2.05.563a.72.72 0 01.345.213l1.422 1.58a.717.717 0 001.229-.29l.563-2.05a.732.732 0 01.213-.345l1.58-1.421a.72.72 0 00-.29-1.23l-2.05-.563a.73.73 0 01-.344-.213l-1.422-1.58a.707.707 0 00-.532-.24" fill="#e7e0ea" fill-opacity="1" fill-rule="nonzero" stroke="none" stroke-width=".1"/><path id="path52-6" d="M35.23 138.154c-.188 0-.375.004-.564.01-5.281.175-10.404 2.745-13.703 6.873-3.208 4.014-6.407 13.108-4.329 18.799 2.17 5.937 8.979 10.328 15.664 10.328.519 0 1.036-.026 1.55-.08 7.707-.804 14.555-6.967 16.652-14.988 1.427-5.455.496-11.042-2.49-14.944-2.855-3.731-7.711-5.998-12.78-5.998m-2.968 33.358c-5.623 0-11.33-3.645-13.135-8.586-1.575-4.312.85-12.406 3.91-16.233 2.82-3.53 7.201-5.727 11.717-5.877.16-.005.322-.008.482-.008 4.244 0 8.307 1.873 10.667 4.957 2.492 3.256 3.251 7.989 2.03 12.66-1.795 6.863-7.834 12.339-14.36 13.02-.435.045-.874.067-1.311.067" fill="#e7e0ea" fill-opacity="1" fill-rule="nonzero" stroke="none" stroke-width=".1"/><g id="smartphoneLeft" fill-opacity="1" fill-rule="evenodd" stroke="none" stroke-width=".1"><path d="M.317 265.765c-1.62 4.659 3.36 9.049 5.984 11.614 3.652 3.57 5.826 4.239 5.826 4.239l85.692 16.668c6.363 1.247 13.312-2.754 15.509-8.93l63.387-179.444c1.531-3.079-.812-15.732-5.516-17.865L80.823 74.34c-6.362-1.247-13.31 2.755-15.508 8.931 0 0-57.492 160.913-64.998 182.494" id="path22" fill="#6d74c2"/><path d="M7.686 270.033c-2.038 5.727 1.097 11.314 6.997 12.47l83.806 16.42c5.901 1.156 12.344-2.555 14.381-8.281l63.836-179.417c2.038-5.727-1.097-11.315-6.997-12.471l-83.807-16.42c-5.9-1.155-12.343 2.556-14.38 8.282L7.685 270.033" id="path24" fill="#434ea9"/><path d="M17.785 262.018c-1.85 5.2.997 10.273 6.354 11.323l73.084 14.319c5.357 1.05 11.208-2.319 13.058-7.52l51.988-146.117c1.85-5.201-.997-10.275-6.354-11.325L82.831 108.38c-5.356-1.05-11.208 2.32-13.058 7.521L17.785 262.018" id="path26" fill="#fff"/><path d="M119.733 112.908c-3.692-1.749-4.661-6.603-2.166-10.844 2.495-4.241 7.51-6.26 11.201-4.513 3.691 1.749 4.661 6.603 2.166 10.845-2.495 4.24-7.51 6.26-11.201 4.512" id="path28" fill="#3a3c9c"/></g><g id="personLeft"><path d="M158.785 313.326c-16.13 5.704-48.408-2.751-48.334-34.962.056-24.47-20.194-25.03-24.483-45.363-9.313-44.15 51.264-71.404 80.46-35.397 18.164 22.403 28.542 102.925-7.643 115.722" id="path30" fill="#30358d" fill-opacity="1" fill-rule="evenodd" stroke="none" stroke-width=".1"/><path d="M152.111 285.249c1.33 9.919 10.095 15.629 13.361 13.162 3.37-2.545 6.346-7.091 8.054-14.503 3.364-14.595 2.646-29.695-2.461-34.511-3.01-2.841-15.035-3.804-15.035-3.804s-12.011-5.409-12.48-15.133c-.528-10.956 12.777-37.578.857-44.75-11.918-7.172-24.942-22.272-44.684-23.583-20.039-1.331-40.162 24.061-32.92 32.61 15.422 18.205 29.028 47.28 53.223 51.059 10.891 1.7 16.937 1.269 16.886 12.331 0 0-3.522-.705-6.079 1.558-3.22 2.849-5.199 11.131.232 12.425 5.92 1.409 7.554-9.034 7.554-9.034s11.125 4.524 13.492 22.173" id="path32" fill="#f7eed0" fill-opacity="1" fill-rule="evenodd" stroke="none" stroke-width=".1"/><g transform="scale(.1)" id="g34"><g id="g36" clip-path="url(#clipPath40)" fill="#f2557d" fill-opacity="1" fill-rule="evenodd" stroke="none"><path d="M1274.78 1578.96s162.55 122.95 220.56 269.77c51.99 131.58 1.62 282.85-30.23 288.95-68.5 13.09-161.19 201.57-232.15 365.06-31.63 72.89-621.315-400.49-728.147-508.83-106.821-108.32 273.039-405.97 389.878-461.42 116.849-55.44 380.089 46.47 380.089 46.47" id="path42"/><path d="M1504.58 2680.01c-44.34 0-80.28-35.95-80.28-80.29s35.94-80.28 80.28-80.28 80.29 35.94 80.29 80.28-35.95 80.29-80.29 80.29" id="path44"/><path d="M1799.36 2729.59c-44.34 0-80.29-35.95-80.29-80.29s35.95-80.28 80.29-80.28 80.29 35.94 80.29 80.28-35.95 80.29-80.29 80.29" id="path46"/></g></g><path d="M124.699 235.22c4.691-8.85 21.807-29.817 31.9-35.876 4.767-2.861 49.984 27.806 49.984 27.806s7.597.745 2.973-6.657c-4.64-7.424-39.066-48.697-58.332-42.883-19.265 5.813-48.838 33.324-50.903 45.263-2.676 15.475 18.019 24.343 24.378 12.347" id="path48" fill="#f7eed0" fill-opacity="1" fill-rule="evenodd" stroke="none" stroke-width=".1"/><path d="M156.47 277.504c.846.141 1.711-.812 1.931-2.13.219-1.318-.288-2.5-1.135-2.641-.846-.142-1.71.812-1.93 2.129-.22 1.318.288 2.5 1.134 2.642" id="path50" fill="#33306f" fill-opacity="1" fill-rule="evenodd" stroke="none" stroke-width=".1"/><path d="M165.783 281.909l.062-.006.245-.044v-.108l.002-.123.004-.103v-.018l-.006-.123-.003-.123-.002-.122-.001-.123.001-.123.001-.123.002-.122.005-.124.002-.045.002-.079.004-.123.007-.124.007-.124.008-.123.01-.124.01-.125.011-.124.013-.125.013-.119.001-.006.009-.125.012-.125.012-.124.014-.126.014-.125.016-.125.015-.126.018-.126.018-.125.019-.126.02-.126.021-.126.023-.126.022-.125.024-.126.025-.126.025-.126.027-.126.027-.127.029-.125.014-.06.014-.066.029-.126.031-.126.03-.126.032-.127.033-.125.032-.126.034-.125.036-.126.036-.125.036-.125.033-.112.005-.014.037-.126.037-.125.039-.125.04-.125.04-.125.041-.124.042-.124.086-.249.026-.071.06-.178.087-.248.09-.247.018-.046.073-.202.093-.246.096-.246.091-.223.008-.021.098-.245.102-.242.104-.242.107-.24.11-.238.112-.238.001-.004.106-.234.11-.238.112-.236.115-.233.117-.232.121-.23.122-.227.125-.225.052-.091.074-.133.128-.22.129-.219.133-.216.135-.213.136-.212.138-.206.141-.205.025-.034.111-.173.137-.204.141-.2.143-.196.003-.085-.083.017-.168.178-.169.179-.169.181-.141.153-.028.032-.16.193-.161.196-.159.198-.158.201-.158.203-.156.206-.156.209-.091.124-.062.087-.152.213-.151.217-.148.22-.148.22-.147.223-.144.225-.143.228-.139.225-.003.004-.132.235-.13.237-.128.239-.126.241-.124.242-.121.244-.01.021-.107.226-.114.248-.111.249-.088.204-.02.047-.103.254-.102.254-.069.182-.027.074-.09.257-.045.131-.042.129-.043.13-.042.13-.041.13-.04.131-.039.13-.004.014-.033.118-.038.13-.035.132-.036.131-.034.132-.033.132-.033.132-.031.132-.031.132-.03.132-.029.132-.015.07-.012.063-.026.133-.027.131-.024.133-.023.133-.023.133-.022.132-.02.133-.02.133-.018.132-.019.133-.016.132-.016.133-.015.132-.015.133-.012.132-.011.132-.012.132-.009.133-.009.131-.008.132v.005l-.003.127-.001.132v.263l.001.13.003.131.004.131.004.131.007.129.004.082.002.048.01.13.009.129.012.129.012.128.014.129.014.128.016.127.016.126.003.021.023.106.028.126.025.108.249-.014" id="path52" fill="#33306f" fill-opacity="1" fill-rule="evenodd" stroke="none" stroke-width=".1"/><path d="M171.021 280.415c.846.148 1.717-.8 1.946-2.116.229-1.315-.27-2.502-1.116-2.649-.844-.147-1.715.8-1.945 2.116-.229 1.316.27 2.502 1.115 2.649" id="path54" fill="#33306f" fill-opacity="1" fill-rule="evenodd" stroke="none" stroke-width=".1"/><path d="M215.381 233.368c-1.758-2.288-10.353-4.726-15.51-13.035-.173-.28-.876-4.373 1.919-4.724 1.635-.206 6.809.547 12.87 3.609 3.604 1.821 10.311 4.698 13.016 5.879 2.736 1.195 1.625 1.861-.323 1.241-1.713-.545-7.827-2.206-7.827-2.206s7.647 3.398 9.541 4.367c1.715.877 2.359 2.411.01 1.563-1.924-.696-9.227-3.799-9.227-3.799s7.74 4.572 9.508 5.766c1.209.818.949 2.04-1.423.851-1.902-.955-9.453-4.737-9.453-4.737l7.61 5.065c1.784 1.189 1.819 2.753-1.268 1.035-2.326-1.293-7.993-3.839-11.164-5.45 1.216.975 3.862 2.932 3.62 5.471-.046.491-.36 1.106-1.899-.896" id="path56" fill="#f7eed0" fill-opacity="1" fill-rule="evenodd" stroke="none" stroke-width=".1"/></g><path id="path66-7" d="M31.253 85.665c-.55 0-1.11.2-1.563.634l-4.848 4.646c-.314.3-.708.505-1.135.589L17.12 92.83c-1.763.347-2.447 2.506-1.203 3.804l4.646 4.848c.3.314.505.708.59 1.135l1.295 6.588c.225 1.147 1.218 1.837 2.241 1.837.55 0 1.11-.2 1.563-.635l4.848-4.645a2.272 2.272 0 011.134-.59l6.588-1.295c1.764-.347 2.447-2.507 1.203-3.804l-4.645-4.848a2.277 2.277 0 01-.59-1.134l-1.295-6.59c-.225-1.146-1.218-1.836-2.241-1.836" fill="#e7e0ea" fill-opacity="1" fill-rule="nonzero" stroke="none" stroke-width=".1"/><path id="path78" d="M-15.088 112.915a.717.717 0 00-.697.53l-.564 2.05a.716.716 0 01-.213.343l-1.58 1.422a.72.72 0 00.29 1.23l2.05.563a.73.73 0 01.345.212l1.42 1.581a.71.71 0 00.534.24.717.717 0 00.696-.53l.564-2.05a.718.718 0 01.213-.345l1.58-1.42a.72.72 0 00-.29-1.23l-2.05-.564a.729.729 0 01-.345-.213l-1.421-1.58a.706.706 0 00-.532-.239" fill="#e7e0ea" fill-opacity="1" fill-rule="nonzero" stroke="none" stroke-width=".1"/><path id="path74-5" d="M117.305 57.595a.718.718 0 00-.697.53l-.563 2.05a.724.724 0 01-.213.344l-1.58 1.422a.72.72 0 00.29 1.23l2.05.563c.132.036.25.11.344.212l1.422 1.581a.718.718 0 001.229-.291l.564-2.05a.72.72 0 01.212-.344l1.58-1.422a.72.72 0 00-.29-1.229l-2.05-.564a.71.71 0 01-.344-.213l-1.421-1.58a.711.711 0 00-.533-.239" fill="#e7e0ea" fill-opacity="1" fill-rule="nonzero" stroke="none" stroke-width=".1"/></g></svg>