<?xml version="1.0" encoding="UTF-8" standalone="no"?>
<!-- Created with Inkscape (http://www.inkscape.org/) -->

<svg
   xmlns:dc="http://purl.org/dc/elements/1.1/"
   xmlns:cc="http://creativecommons.org/ns#"
   xmlns:rdf="http://www.w3.org/1999/02/22-rdf-syntax-ns#"
   xmlns:svg="http://www.w3.org/2000/svg"
   xmlns="http://www.w3.org/2000/svg"
   xmlns:sodipodi="http://sodipodi.sourceforge.net/DTD/sodipodi-0.dtd"
   xmlns:inkscape="http://www.inkscape.org/namespaces/inkscape"
   version="1.1"
   id="svg2"
   xml:space="preserve"
   viewBox="0 0 371.50989 415.5994"
   sodipodi:docname="smartphone_person_right.svg"
   inkscape:version="0.92.4 (5da689c313, 2019-01-14)"><metadata
     id="metadata8"><rdf:RDF><cc:Work
         rdf:about=""><dc:format>image/svg+xml</dc:format><dc:type
           rdf:resource="http://purl.org/dc/dcmitype/StillImage" /><dc:title></dc:title></cc:Work></rdf:RDF></metadata><defs
     id="defs6"><clipPath
       clipPathUnits="userSpaceOnUse"
       id="clipPath40"><path
         d="m 1521.11,2852.49 c 13.3,99.19 100.95,156.29 133.61,131.62 33.7,-25.45 63.46,-70.91 80.54,-145.03 33.64,-145.95 26.46,-296.95 -24.61,-345.11 -30.1,-28.41 -150.35,-38.04 -150.35,-38.04 0,0 -120.11,-54.09 -124.8,-151.33 -5.28,-109.56 127.77,-375.78 8.57,-447.5 -119.18,-71.72 -249.42,-222.72 -446.84,-235.83 -200.386,-13.31 -401.617,240.61 -329.203,326.1 154.227,182.05 290.282,472.8 532.233,510.59 108.91,17 169.37,12.69 168.86,123.31 0,0 -35.22,-7.05 -60.79,15.58 -32.2,28.49 -51.99,111.31 2.32,124.25 59.2,14.09 75.54,-90.34 75.54,-90.34 0,0 111.25,45.24 134.92,221.73 z"
         id="path38"
         inkscape:connector-curvature="0" /></clipPath><clipPath
       clipPathUnits="userSpaceOnUse"
       id="clipPath68"><path
         d="m 3093.89,2883.11 c 7.1,99.82 -179.82,114.65 -212.48,89.99 -33.7,-25.45 -54.1,-59.9 -71.19,-134.02 -33.63,-145.95 -26.45,-296.95 24.61,-345.11 30.11,-28.41 150.35,-38.04 150.35,-38.04 0,0 120.11,-54.09 124.81,-151.33 5.28,-109.56 -127.76,-375.78 -8.58,-447.5 119.18,-71.72 249.43,-222.72 446.85,-235.83 200.38,-13.31 401.62,240.61 329.2,326.1 -154.23,182.05 -290.28,472.8 -532.23,510.59 -108.91,17 -169.37,12.69 -168.86,123.31 0,0 24.65,0.63 50.21,23.25 32.21,28.51 52.59,104.3 2.63,129.71 -30.59,15.55 -57.59,-1.56 -52.79,-6.85 l -12.03,-56.31 c 0,0 -83.55,28.72 -70.5,212.04 z"
         id="path66"
         inkscape:connector-curvature="0" /></clipPath></defs><sodipodi:namedview
     pagecolor="#ffffff"
     bordercolor="#666666"
     borderopacity="1"
     objecttolerance="10"
     gridtolerance="10"
     guidetolerance="10"
     inkscape:pageopacity="0"
     inkscape:pageshadow="2"
     inkscape:window-width="1147"
     inkscape:window-height="1403"
     id="namedview4"
     showgrid="false"
     inkscape:zoom="1.2066319"
     inkscape:cx="202.69248"
     inkscape:cy="267.24459"
     inkscape:window-x="2293"
     inkscape:window-y="0"
     inkscape:window-maximized="0"
     inkscape:current-layer="g10"
     fit-margin-top="0"
     fit-margin-left="0"
     fit-margin-right="0"
     fit-margin-bottom="0" /><g
     id="g10"
     inkscape:groupmode="layer"
     inkscape:label="ink_ext_XXXXXX"
     transform="matrix(1.3333333,0,0,-1.3333333,-240.10384,502.89763)"><g
       id="smartphoneRight"><path
         d="m 443.026,265.765 c 1.62,4.659 -3.359,9.049 -5.983,11.614 -3.652,3.57 -5.826,4.239 -5.826,4.239 l -85.693,16.668 c -6.363,1.247 -13.311,-2.754 -15.508,-8.93 L 266.628,109.912 c -1.53,-3.079 0.812,-15.7319 5.516,-17.8651 L 362.52,74.3398 c 6.363,-1.2468 13.312,2.7551 15.508,8.9313 0,0 57.493,160.9129 64.998,182.4939"
         style="fill:#6d74c2;fill-opacity:1;fill-rule:evenodd;stroke:none;stroke-width:0.1"
         id="path14"
         inkscape:connector-curvature="0" /><path
         d="m 435.658,270.033 c 2.038,5.727 -1.098,11.314 -6.997,12.47 l -83.807,16.42 c -5.9,1.156 -12.343,-2.555 -14.38,-8.281 L 266.638,111.225 c -2.038,-5.727 1.097,-11.3148 6.997,-12.4711 L 357.441,82.334 c 5.901,-1.1551 12.344,2.5558 14.381,8.282 l 63.836,179.417"
         style="fill:#434ea9;fill-opacity:1;fill-rule:evenodd;stroke:none;stroke-width:0.1"
         id="path16"
         inkscape:connector-curvature="0" /><path
         d="m 425.558,262.018 c 1.851,5.2 -0.996,10.273 -6.353,11.323 l -73.084,14.319 c -5.357,1.05 -11.208,-2.319 -13.059,-7.52 L 281.075,134.023 c -1.851,-5.201 0.996,-10.275 6.354,-11.325 l 73.084,-14.318 c 5.356,-1.05 11.208,2.32 13.058,7.521 l 51.987,146.117"
         style="fill:#ffffff;fill-opacity:1;fill-rule:evenodd;stroke:none;stroke-width:0.1"
         id="path18"
         inkscape:connector-curvature="0" /><path
         d="m 323.611,112.908 c 3.692,-1.749 4.661,-6.603 2.166,-10.844 -2.495,-4.241 -7.511,-6.2609 -11.201,-4.5128 -3.691,1.7488 -4.661,6.6028 -2.166,10.8448 2.495,4.24 7.51,6.26 11.201,4.512"
         style="fill:#3a3c9c;fill-opacity:1;fill-rule:evenodd;stroke:none;stroke-width:0.1"
         id="path20"
         inkscape:connector-curvature="0" /></g><g
       id="personRight"><path
         d="m 328.214,296.05 c 0,0 3.639,16.575 -15.117,17.248 -12.896,0.463 -23.67,4.867 -29.368,8.338 -5.696,3.469 -12.748,-4.887 -3.064,-10.513 0,0 -12.925,4.907 -14.193,-5.004 -1.666,-13.03 13.885,-13.882 21.59,-15.776 7.707,-1.893 21.477,-37.75 29.579,-38.744 0,0 6.06,3.977 11.695,13.342 5.405,8.984 9.077,24.169 -1.122,31.109"
         style="fill:#30358b;fill-opacity:1;fill-rule:evenodd;stroke:none;stroke-width:0.1"
         id="path58"
         inkscape:connector-curvature="0" /><path
         d="m 309.389,288.311 c 0.71,9.982 -17.982,11.465 -21.248,8.999 -3.37,-2.545 -5.41,-5.99 -7.119,-13.402 -3.363,-14.595 -2.645,-29.695 2.461,-34.511 3.011,-2.841 15.035,-3.804 15.035,-3.804 0,0 12.011,-5.409 12.481,-15.133 0.528,-10.956 -12.776,-37.578 -0.858,-44.75 11.918,-7.172 24.943,-22.272 44.685,-23.583 20.038,-1.331 40.162,24.061 32.92,32.61 -15.423,18.205 -29.028,47.28 -53.223,51.059 -10.891,1.7 -16.937,1.269 -16.886,12.331 0,0 2.465,0.063 5.021,2.325 3.221,2.851 5.259,10.43 0.263,12.971 -3.059,1.555 -5.759,-0.156 -5.279,-0.685 l -1.203,-5.631 c 0,0 -8.355,2.872 -7.05,21.204"
         style="fill:#f7debf;fill-opacity:1;fill-rule:evenodd;stroke:none;stroke-width:0.1"
         id="path60"
         inkscape:connector-curvature="0" /><g
         transform="scale(0.1)"
         id="g62"><g
           id="g64"
           clip-path="url(#clipPath68)"><path
             d="m 3270.7,1578.96 c 0,0 -162.54,122.95 -220.54,269.77 -52,131.58 -1.64,282.85 30.22,288.95 68.5,13.09 161.18,201.57 232.15,365.06 31.64,72.89 621.32,-400.49 728.14,-508.83 106.83,-108.32 -273.03,-405.97 -389.87,-461.42 -116.86,-55.44 -380.1,46.47 -380.1,46.47"
             style="fill:#6d74c2;fill-opacity:1;fill-rule:evenodd;stroke:none"
             id="path70"
             inkscape:connector-curvature="0" /><path
             d="m 3040.91,2680.01 c 44.33,0 80.28,-35.95 80.28,-80.29 0,-44.34 -35.95,-80.28 -80.28,-80.28 -44.35,0 -80.3,35.94 -80.3,80.28 0,44.34 35.95,80.29 80.3,80.29"
             style="fill:#f2557d;fill-opacity:1;fill-rule:evenodd;stroke:none"
             id="path72"
             inkscape:connector-curvature="0" /><path
             d="m 2746.13,2729.59 c 44.34,0 80.28,-35.95 80.28,-80.29 0,-44.34 -35.94,-80.28 -80.28,-80.28 -44.34,0 -80.29,35.94 -80.29,80.28 0,44.34 35.95,80.29 80.29,80.29"
             style="fill:#f2557d;fill-opacity:1;fill-rule:evenodd;stroke:none"
             id="path74"
             inkscape:connector-curvature="0" /></g></g><path
         d="m 329.849,235.22 c -4.691,-8.85 -21.806,-29.817 -31.9,-35.876 -4.766,-2.861 -49.983,27.806 -49.983,27.806 0,0 -7.597,0.745 -2.973,-6.657 4.64,-7.424 39.065,-48.697 58.332,-42.883 19.266,5.813 48.838,33.324 50.903,45.263 2.676,15.475 -18.019,24.343 -24.379,12.347"
         style="fill:#f7debf;fill-opacity:1;fill-rule:evenodd;stroke:none;stroke-width:0.1"
         id="path76"
         inkscape:connector-curvature="0" /><path
         d="m 298.079,277.504 c -0.847,0.141 -1.711,-0.812 -1.931,-2.13 -0.219,-1.318 0.288,-2.5 1.134,-2.641 0.847,-0.142 1.711,0.812 1.931,2.129 0.219,1.318 -0.288,2.5 -1.134,2.642"
         style="fill:#33306f;fill-opacity:1;fill-rule:evenodd;stroke:none;stroke-width:0.1"
         id="path78"
         inkscape:connector-curvature="0" /><path
         d="m 289.04,281.815 0.028,-0.126 0.023,-0.106 0.003,-0.021 0.016,-0.126 0.016,-0.127 0.014,-0.128 0.014,-0.129 0.012,-0.128 0.012,-0.129 0.009,-0.129 0.01,-0.13 0.002,-0.048 0.004,-0.082 0.007,-0.129 0.004,-0.131 0.004,-0.131 0.003,-0.131 0.002,-0.13 v -0.132 -0.131 l -0.002,-0.132 -0.003,-0.127 v -0.005 l -0.008,-0.132 -0.009,-0.131 -0.009,-0.133 -0.011,-0.132 -0.012,-0.132 -0.013,-0.132 -0.015,-0.133 -0.014,-0.132 -0.016,-0.133 -0.016,-0.132 -0.019,-0.133 -0.019,-0.132 -0.019,-0.133 -0.021,-0.133 -0.021,-0.132 -0.023,-0.133 -0.024,-0.133 -0.023,-0.133 -0.027,-0.131 -0.026,-0.133 -0.012,-0.063 -0.015,-0.07 -0.03,-0.132 -0.029,-0.132 -0.031,-0.132 -0.032,-0.132 -0.032,-0.132 -0.033,-0.132 -0.034,-0.132 -0.036,-0.131 -0.035,-0.132 -0.038,-0.13 -0.033,-0.118 -0.005,-0.014 -0.038,-0.13 -0.041,-0.131 -0.04,-0.13 -0.043,-0.13 -0.042,-0.13 -0.043,-0.129 -0.045,-0.131 -0.089,-0.257 -0.028,-0.074 -0.068,-0.182 -0.102,-0.254 -0.103,-0.254 -0.02,-0.047 -0.088,-0.204 -0.111,-0.249 -0.114,-0.248 -0.107,-0.226 -0.01,-0.021 -0.122,-0.244 -0.124,-0.242 -0.125,-0.241 -0.127,-0.239 -0.131,-0.237 -0.132,-0.235 -0.003,-0.004 -0.139,-0.225 -0.143,-0.228 -0.145,-0.225 -0.146,-0.223 -0.148,-0.22 -0.148,-0.22 -0.151,-0.217 -0.152,-0.213 -0.062,-0.087 -0.091,-0.124 -0.156,-0.209 -0.156,-0.206 -0.158,-0.203 -0.158,-0.201 -0.159,-0.198 -0.162,-0.196 -0.16,-0.193 -0.027,-0.032 -0.141,-0.153 -0.169,-0.181 -0.17,-0.179 -0.167,-0.178 -0.083,-0.017 0.003,0.085 0.143,0.196 0.141,0.2 0.137,0.204 0.111,0.173 0.025,0.034 0.141,0.205 0.138,0.206 0.136,0.212 0.135,0.213 0.133,0.216 0.13,0.219 0.127,0.22 0.074,0.133 0.051,0.091 0.126,0.225 0.123,0.227 0.12,0.23 0.117,0.232 0.115,0.233 0.112,0.236 0.11,0.238 0.105,0.234 0.002,0.004 0.111,0.238 0.111,0.238 0.106,0.24 0.105,0.242 0.101,0.242 0.099,0.245 0.008,0.021 0.091,0.223 0.095,0.246 0.094,0.246 0.073,0.202 0.018,0.046 0.09,0.247 0.087,0.248 0.06,0.178 0.026,0.071 0.086,0.249 0.042,0.124 0.041,0.124 0.04,0.125 0.04,0.125 0.039,0.125 0.038,0.125 0.036,0.126 0.005,0.014 0.033,0.112 0.036,0.125 0.035,0.125 0.036,0.126 0.035,0.125 0.032,0.126 0.033,0.125 0.031,0.127 0.032,0.126 0.03,0.126 0.028,0.126 0.015,0.066 0.014,0.06 0.029,0.125 0.027,0.127 0.026,0.126 0.026,0.126 0.024,0.126 0.025,0.126 0.022,0.125 0.023,0.126 0.021,0.126 0.02,0.126 0.019,0.126 0.019,0.125 0.016,0.126 0.016,0.126 0.016,0.125 0.014,0.125 0.014,0.126 0.012,0.124 0.011,0.125 0.01,0.125 0.001,0.006 0.014,0.119 0.012,0.125 0.011,0.124 0.011,0.125 0.009,0.124 0.008,0.123 0.007,0.124 0.006,0.124 0.005,0.123 0.002,0.079 0.002,0.045 0.005,0.124 0.002,0.122 10e-4,0.123 10e-4,0.123 -10e-4,0.123 -0.002,0.122 -0.003,0.123 -0.005,0.123 v 0.018 l 0.003,0.103 0.002,0.123 v 0.108 l 0.245,0.044 0.062,0.006 0.249,0.014 0.025,-0.108"
         style="fill:#33306f;fill-opacity:1;fill-rule:evenodd;stroke:none;stroke-width:0.1"
         id="path80"
         inkscape:connector-curvature="0" /><path
         d="m 283.527,280.415 c -0.845,0.148 -1.716,-0.8 -1.945,-2.116 -0.23,-1.315 0.27,-2.502 1.115,-2.649 0.846,-0.147 1.716,0.8 1.945,2.116 0.23,1.316 -0.269,2.502 -1.115,2.649"
         style="fill:#33306f;fill-opacity:1;fill-rule:evenodd;stroke:none;stroke-width:0.1"
         id="path82"
         inkscape:connector-curvature="0" /><path
         d="m 239.168,233.368 c 1.758,-2.288 10.352,-4.726 15.51,-13.035 0.173,-0.28 0.876,-4.373 -1.919,-4.724 -1.634,-0.206 -6.809,0.547 -12.869,3.609 -3.605,1.821 -10.312,4.698 -13.016,5.879 -2.737,1.195 -1.626,1.861 0.321,1.241 1.713,-0.545 7.828,-2.206 7.828,-2.206 0,0 -7.646,3.398 -9.542,4.367 -1.714,0.877 -2.358,2.411 -0.009,1.563 1.923,-0.696 9.226,-3.799 9.226,-3.799 0,0 -7.738,4.572 -9.507,5.766 -1.209,0.818 -0.95,2.04 1.422,0.851 1.903,-0.955 9.453,-4.737 9.453,-4.737 0,0 -6.015,4.003 -7.609,5.065 -1.784,1.189 -1.819,2.753 1.268,1.035 2.326,-1.293 7.993,-3.839 11.164,-5.45 -1.216,0.975 -3.862,2.932 -3.621,5.471 0.047,0.491 0.361,1.106 1.9,-0.896"
         style="fill:#f7debf;fill-opacity:1;fill-rule:evenodd;stroke:none;stroke-width:0.1"
         id="path84"
         inkscape:connector-curvature="0" /></g><g
       id="g862"
       transform="translate(-78.93874,-34.186069)"><path
         d="m 275.08671,400.28308 c 8.22393,11.74502 24.43727,14.60458 36.18153,6.38079 11.74581,-8.22449 14.60317,-24.43748 6.37921,-36.18248 -1.51596,-2.16503 -5.28537,-5.57824 -5.28537,-5.57824 l 2.46585,-14.70958 -11.52238,10.15803 c 0,0 -2.2314,-0.53847 -3.36664,-0.69701 -6.27388,-0.87221 -12.87915,0.53001 -18.47312,4.44698 -11.74422,8.22336 -14.60353,24.43527 -6.37902,36.18111"
         style="fill:#efe4ff;fill-opacity:1;fill-rule:evenodd;stroke:none;stroke-width:0.1"
         id="path88"
         inkscape:connector-curvature="0" /><path
         d="m 296.08405,388.51648 c 0,0 -3.273,5.868 -7.921,4.704 -2.908,-0.728 -4.547,-4.912 -2.63,-9.654 2.308,-5.713 11.883,-12.548 11.883,-12.548 0,0 8.873,9.675 9.757,16.445 0.799,6.123 -7.925,10.514 -11.089,1.053"
         style="fill:#ff2a2a;fill-opacity:1;fill-rule:evenodd;stroke:none;stroke-width:0.1"
         id="path90"
         inkscape:connector-curvature="0" /></g><path
       inkscape:connector-curvature="0"
       id="path60-3"
       style="fill:#e7e0ea;fill-opacity:1;fill-rule:nonzero;stroke:none;stroke-width:0.09999999"
       d="m 447.13154,215.3915 c -0.723,0 -1.432,0.452 -1.658,1.248 l -1.389,4.877 c -0.089,0.316 -0.268,0.59899 -0.514,0.817 l -3.8,3.357 c -1.018,0.899 -0.639,2.567 0.666,2.939 l 4.877,1.388 c 0.316,0.09 0.6,0.268 0.817,0.514 l 3.358,3.801 c 0.35,0.396 0.817,0.581 1.279,0.581 0.723,0 1.432,-0.452 1.659,-1.248 l 1.388,-4.877 c 0.09,-0.316 0.268,-0.599 0.515,-0.817 l 3.8,-3.357 c 1.017,-0.899 0.638,-2.567 -0.667,-2.939 l -4.877,-1.388 c -0.316,-0.09 -0.599,-0.268 -0.817,-0.514 l -3.357,-3.8 c -0.351,-0.397 -0.818,-0.582 -1.28,-0.582" /><path
       inkscape:connector-curvature="0"
       id="path58-6"
       style="fill:#e7e0ea;fill-opacity:1;fill-rule:nonzero;stroke:none;stroke-width:0.09999999"
       d="m 425.53214,65.473688 c -3.388,0 -6.774,1.30599 -9.145,3.747 -4.982,5.124 -4.646,11.818 -2.104,16.179 2.274,3.9 6.1,6.053 10.449,6.053 1.174,0 2.385,-0.157 3.615,-0.478 5.145,-1.347 9.16,-5.954 9.762,-11.20401 0.603,-5.24799 -2.38,-10.73699 -7.092,-13.05199 -1.711,-0.84 -3.598,-1.245 -5.485,-1.245 m -0.776,23.326 c -3.937,0 -6.742,-2.269 -8.181,-4.737 -2.036,-3.494 -2.297,-8.868 1.713,-12.993 1.849,-1.90201 4.571,-2.93 7.27,-2.93 1.487,0 2.966,0.312 4.289,0.96199 3.739,1.83601 6.105,6.19601 5.626,10.366 -0.473,4.12201 -3.753,7.88201 -7.797,8.93901 -1.033,0.271 -2.007,0.393 -2.92,0.393" /><path
       inkscape:connector-curvature="0"
       id="path76-7"
       style="fill:#e7e0ea;fill-opacity:1;fill-rule:nonzero;stroke:none;stroke-width:0.09999999"
       d="m 418.94413,132.80529 c -0.305,0 -0.604,0.192 -0.697,0.529 l -0.564,2.05 c -0.036,0.133 -0.11,0.252 -0.213,0.344 l -1.58,1.422 c -0.423,0.38 -0.258,1.079 0.29,1.23 l 2.05,0.563 c 0.133,0.037 0.253,0.11 0.345,0.213 l 1.422,1.58 c 0.146,0.163 0.34,0.239 0.532,0.239 0.305,0 0.604,-0.192 0.697,-0.529 l 0.563,-2.05 c 0.037,-0.133 0.111,-0.252 0.213,-0.345 l 1.58,-1.421 c 0.423,-0.381 0.258,-1.078 -0.291,-1.229 l -2.049,-0.564 c -0.132,-0.037 -0.252,-0.111 -0.344,-0.213 l -1.422,-1.58 c -0.147,-0.164 -0.341,-0.239 -0.532,-0.239" /><path
       inkscape:connector-curvature="0"
       id="starRight"
       style="fill:#e7e0ea;fill-opacity:1;fill-rule:nonzero;stroke:none;stroke-width:0.09999999"
       d="m 183.37062,239.71445 c -0.305,0 -0.604,0.192 -0.697,0.53 l -0.564,2.049 c -0.036,0.133 -0.11,0.252 -0.212,0.345 l -1.581,1.422 c -0.423,0.38 -0.258,1.078 0.291,1.229 l 2.05,0.563 c 0.133,0.037 0.252,0.111 0.344,0.213 l 1.421,1.581 c 0.147,0.163 0.341,0.238 0.533,0.238 0.305,0 0.605,-0.192 0.697,-0.529 l 0.563,-2.05 c 0.037,-0.133 0.111,-0.252 0.213,-0.344 l 1.58,-1.422 c 0.424,-0.38 0.259,-1.079 -0.29,-1.229 l -2.049,-0.564 c -0.133,-0.037 -0.252,-0.11 -0.345,-0.213 l -1.422,-1.58 c -0.147,-0.163 -0.34,-0.239 -0.532,-0.239" /></g></svg>
