<?xml version="1.0" encoding="UTF-8" standalone="no"?>
<!-- Created with Inkscape (http://www.inkscape.org/) -->

<svg
   xmlns:dc="http://purl.org/dc/elements/1.1/"
   xmlns:cc="http://creativecommons.org/ns#"
   xmlns:rdf="http://www.w3.org/1999/02/22-rdf-syntax-ns#"
   xmlns:svg="http://www.w3.org/2000/svg"
   xmlns="http://www.w3.org/2000/svg"
   xmlns:sodipodi="http://sodipodi.sourceforge.net/DTD/sodipodi-0.dtd"
   xmlns:inkscape="http://www.inkscape.org/namespaces/inkscape"
   version="1.1"
   id="svg2"
   xml:space="preserve"
   viewBox="0 0 331.98261 343.17682"
   sodipodi:docname="smartphone_person_left.svg"
   inkscape:version="0.92.4 (5da689c313, 2019-01-14)"
   ><metadata
     id="metadata8"><rdf:RDF><cc:Work
         rdf:about=""><dc:format>image/svg+xml</dc:format><dc:type
           rdf:resource="http://purl.org/dc/dcmitype/StillImage" /><dc:title></dc:title></cc:Work></rdf:RDF></metadata><defs
     id="defs6"><clipPath
       clipPathUnits="userSpaceOnUse"
       id="clipPath40"><path
         d="m 1521.11,2852.49 c 13.3,99.19 100.95,156.29 133.61,131.62 33.7,-25.45 63.46,-70.91 80.54,-145.03 33.64,-145.95 26.46,-296.95 -24.61,-345.11 -30.1,-28.41 -150.35,-38.04 -150.35,-38.04 0,0 -120.11,-54.09 -124.8,-151.33 -5.28,-109.56 127.77,-375.78 8.57,-447.5 -119.18,-71.72 -249.42,-222.72 -446.84,-235.83 -200.386,-13.31 -401.617,240.61 -329.203,326.1 154.227,182.05 290.282,472.8 532.233,510.59 108.91,17 169.37,12.69 168.86,123.31 0,0 -35.22,-7.05 -60.79,15.58 -32.2,28.49 -51.99,111.31 2.32,124.25 59.2,14.09 75.54,-90.34 75.54,-90.34 0,0 111.25,45.24 134.92,221.73 z"
         id="path38"
         inkscape:connector-curvature="0" /></clipPath><clipPath
       clipPathUnits="userSpaceOnUse"
       id="clipPath68"><path
         d="m 3093.89,2883.11 c 7.1,99.82 -179.82,114.65 -212.48,89.99 -33.7,-25.45 -54.1,-59.9 -71.19,-134.02 -33.63,-145.95 -26.45,-296.95 24.61,-345.11 30.11,-28.41 150.35,-38.04 150.35,-38.04 0,0 120.11,-54.09 124.81,-151.33 5.28,-109.56 -127.76,-375.78 -8.58,-447.5 119.18,-71.72 249.43,-222.72 446.85,-235.83 200.38,-13.31 401.62,240.61 329.2,326.1 -154.23,182.05 -290.28,472.8 -532.23,510.59 -108.91,17 -169.37,12.69 -168.86,123.31 0,0 24.65,0.63 50.21,23.25 32.21,28.51 52.59,104.3 2.63,129.71 -30.59,15.55 -57.59,-1.56 -52.79,-6.85 l -12.03,-56.31 c 0,0 -83.55,28.72 -70.5,212.04 z"
         id="path66"
         inkscape:connector-curvature="0" /></clipPath></defs><sodipodi:namedview
     pagecolor="#ffffff"
     bordercolor="#666666"
     borderopacity="1"
     objecttolerance="10"
     gridtolerance="10"
     guidetolerance="10"
     inkscape:pageopacity="0"
     inkscape:pageshadow="2"
     inkscape:window-width="1147"
     inkscape:window-height="1403"
     id="namedview4"
     showgrid="false"
     inkscape:zoom="1.2066319"
     inkscape:cx="188.86984"
     inkscape:cy="165.74706"
     inkscape:window-x="0"
     inkscape:window-y="0"
     inkscape:window-maximized="0"
     inkscape:current-layer="g10"
     fit-margin-top="0"
     fit-margin-left="0"
     fit-margin-right="0"
     fit-margin-bottom="0" /><g
     id="g10"
     inkscape:groupmode="layer"
     inkscape:label="ink_ext_XXXXXX"
     transform="matrix(1.3333333,0,0,-1.3333333,24.508272,419.97073)"><path
       inkscape:connector-curvature="0"
       id="path76"
       style="fill:#e7e0ea;fill-opacity:1;fill-rule:nonzero;stroke:none;stroke-width:0.09999999"
       d="m 10.396099,227.90472 c -0.305,0 -0.6039998,0.192 -0.6969998,0.529 l -0.564,2.05 c -0.036,0.133 -0.11,0.252 -0.213,0.344 l -1.5800005,1.422 c -0.423,0.38 -0.258,1.079 0.29,1.23 l 2.0500005,0.563 c 0.133,0.037 0.253,0.11 0.3449998,0.213 l 1.422,1.58 c 0.146,0.163 0.34,0.239 0.532,0.239 0.305,0 0.604,-0.192 0.697,-0.529 l 0.563,-2.05 c 0.037,-0.133 0.111,-0.252 0.213,-0.345 l 1.58,-1.421 c 0.423001,-0.381 0.258,-1.078 -0.291,-1.229 l -2.049,-0.564 c -0.132,-0.037 -0.252,-0.111 -0.344,-0.213 l -1.422,-1.58 c -0.147,-0.164 -0.341,-0.239 -0.532,-0.239" /><path
       inkscape:connector-curvature="0"
       id="path52-6"
       style="fill:#e7e0ea;fill-opacity:1;fill-rule:nonzero;stroke:none;stroke-width:0.09999999"
       d="m 35.230636,138.15381 c -0.188199,0 -0.3761,0.004 -0.564399,0.01 -5.281301,0.175 -10.404301,2.745 -13.703101,6.87299 -3.2082,4.014 -6.4075,13.108 -4.3289,18.799 2.1695,5.937 8.9785,10.328 15.6636,10.328 0.5188,0 1.036,-0.026 1.5504,-0.08 7.706701,-0.804 14.554301,-6.967 16.651601,-14.988 1.426899,-5.455 0.4965,-11.042 -2.489901,-14.944 -2.854999,-3.73099 -7.7109,-5.99799 -12.7793,-5.99799 m -2.9691,33.35799 c -5.622699,0 -11.3297,-3.645 -13.1344,-8.586 -1.575,-4.312 0.8504,-12.406 3.909,-16.233 2.8211,-3.53 7.202,-5.72699 11.718001,-5.87699 0.1605,-0.005 0.321799,-0.008 0.481999,-0.008 4.2441,0 8.306601,1.87299 10.666401,4.95699 2.492599,3.256 3.251599,7.989 2.0301,12.66 -1.7949,6.863 -7.834001,12.339 -14.3602,13.02 -0.4347,0.045 -0.873,0.067 -1.310901,0.067" /><g
       id="smartphoneLeft"><path
         d="m 0.317188,265.765 c -1.619918,4.659 3.359372,9.049 5.983982,11.614 3.65196,3.57 5.82613,4.239 5.82613,4.239 l 85.6922,16.668 c 6.3625,1.247 13.3115,-2.754 15.5085,-8.93 l 63.387,-179.444 c 1.531,-3.079 -0.812,-15.7319 -5.516,-17.8651 L 80.823,74.3398 c -6.3621,-1.2468 -13.3109,2.7551 -15.5082,8.9313 0,0 -57.49214,160.9129 -64.997612,182.4939"
         style="fill:#6d74c2;fill-opacity:1;fill-rule:evenodd;stroke:none;stroke-width:0.1"
         id="path22"
         inkscape:connector-curvature="0" /><path
         d="m 7.68555,270.033 c -2.03789,5.727 1.09765,11.314 6.99725,12.47 l 83.8067,16.42 c 5.9005,1.156 12.3435,-2.555 14.3805,-8.281 l 63.836,-179.417 c 2.038,-5.727 -1.097,-11.3148 -6.997,-12.4711 L 85.9023,82.334 c -5.9,-1.1551 -12.3437,2.5558 -14.3812,8.282 L 7.68555,270.033"
         style="fill:#434ea9;fill-opacity:1;fill-rule:evenodd;stroke:none;stroke-width:0.1"
         id="path24"
         inkscape:connector-curvature="0" /><path
         d="m 17.7852,262.018 c -1.8504,5.2 0.9964,10.273 6.3539,11.323 l 73.0836,14.319 c 5.3573,1.05 11.2083,-2.319 13.0583,-7.52 l 51.988,-146.117 c 1.85,-5.201 -0.997,-10.275 -6.354,-11.325 L 82.8313,108.38 c -5.3567,-1.05 -11.2083,2.32 -13.0586,7.521 L 17.7852,262.018"
         style="fill:#ffffff;fill-opacity:1;fill-rule:evenodd;stroke:none;stroke-width:0.1"
         id="path26"
         inkscape:connector-curvature="0" /><path
         d="m 119.733,112.908 c -3.692,-1.749 -4.661,-6.603 -2.166,-10.844 2.495,-4.241 7.51,-6.2609 11.201,-4.5128 3.691,1.7488 4.661,6.6028 2.166,10.8448 -2.495,4.24 -7.51,6.26 -11.201,4.512"
         style="fill:#3a3c9c;fill-opacity:1;fill-rule:evenodd;stroke:none;stroke-width:0.1"
         id="path28"
         inkscape:connector-curvature="0" /></g><g
       id="personLeft"><path
         d="m 158.785,313.326 c -16.13,5.704 -48.408,-2.751 -48.334,-34.962 0.056,-24.47 -20.1944,-25.03 -24.4834,-45.363 -9.3121,-44.15 51.2644,-71.404 80.4604,-35.397 18.164,22.403 28.542,102.925 -7.643,115.722"
         style="fill:#30358d;fill-opacity:1;fill-rule:evenodd;stroke:none;stroke-width:0.1"
         id="path30"
         inkscape:connector-curvature="0" /><path
         d="m 152.111,285.249 c 1.33,9.919 10.095,15.629 13.361,13.162 3.37,-2.545 6.346,-7.091 8.054,-14.503 3.364,-14.595 2.646,-29.695 -2.461,-34.511 -3.01,-2.841 -15.035,-3.804 -15.035,-3.804 0,0 -12.011,-5.409 -12.48,-15.133 -0.528,-10.956 12.777,-37.578 0.857,-44.75 -11.918,-7.172 -24.942,-22.272 -44.684,-23.583 -20.0386,-1.331 -40.1617,24.061 -32.9203,32.61 15.4227,18.205 29.0282,47.28 53.2233,51.059 10.891,1.7 16.937,1.269 16.886,12.331 0,0 -3.522,-0.705 -6.079,1.558 -3.22,2.849 -5.199,11.131 0.232,12.425 5.92,1.409 7.554,-9.034 7.554,-9.034 0,0 11.125,4.524 13.492,22.173"
         style="fill:#f7eed0;fill-opacity:1;fill-rule:evenodd;stroke:none;stroke-width:0.1"
         id="path32"
         inkscape:connector-curvature="0" /><g
         transform="scale(0.1)"
         id="g34"><g
           id="g36"
           clip-path="url(#clipPath40)"><path
             d="m 1274.78,1578.96 c 0,0 162.55,122.95 220.56,269.77 51.99,131.58 1.62,282.85 -30.23,288.95 -68.5,13.09 -161.19,201.57 -232.15,365.06 -31.63,72.89 -621.315,-400.49 -728.147,-508.83 -106.821,-108.32 273.039,-405.97 389.878,-461.42 116.849,-55.44 380.089,46.47 380.089,46.47"
             style="fill:#f2557d;fill-opacity:1;fill-rule:evenodd;stroke:none"
             id="path42"
             inkscape:connector-curvature="0" /><path
             d="m 1504.58,2680.01 c -44.34,0 -80.28,-35.95 -80.28,-80.29 0,-44.34 35.94,-80.28 80.28,-80.28 44.34,0 80.29,35.94 80.29,80.28 0,44.34 -35.95,80.29 -80.29,80.29"
             style="fill:#f2557d;fill-opacity:1;fill-rule:evenodd;stroke:none"
             id="path44"
             inkscape:connector-curvature="0" /><path
             d="m 1799.36,2729.59 c -44.34,0 -80.29,-35.95 -80.29,-80.29 0,-44.34 35.95,-80.28 80.29,-80.28 44.34,0 80.29,35.94 80.29,80.28 0,44.34 -35.95,80.29 -80.29,80.29"
             style="fill:#f2557d;fill-opacity:1;fill-rule:evenodd;stroke:none"
             id="path46"
             inkscape:connector-curvature="0" /></g></g><path
         d="m 124.699,235.22 c 4.691,-8.85 21.807,-29.817 31.9,-35.876 4.767,-2.861 49.984,27.806 49.984,27.806 0,0 7.597,0.745 2.973,-6.657 -4.64,-7.424 -39.066,-48.697 -58.332,-42.883 -19.265,5.813 -48.838,33.324 -50.903,45.263 -2.6765,15.475 18.019,24.343 24.378,12.347"
         style="fill:#f7eed0;fill-opacity:1;fill-rule:evenodd;stroke:none;stroke-width:0.1"
         id="path48"
         inkscape:connector-curvature="0" /><path
         d="m 156.47,277.504 c 0.846,0.141 1.711,-0.812 1.931,-2.13 0.219,-1.318 -0.288,-2.5 -1.135,-2.641 -0.846,-0.142 -1.71,0.812 -1.93,2.129 -0.22,1.318 0.288,2.5 1.134,2.642"
         style="fill:#33306f;fill-opacity:1;fill-rule:evenodd;stroke:none;stroke-width:0.1"
         id="path50"
         inkscape:connector-curvature="0" /><path
         d="m 165.783,281.909 0.062,-0.006 0.245,-0.044 v -0.108 l 0.002,-0.123 0.004,-0.103 v -0.018 l -0.006,-0.123 -0.003,-0.123 -0.002,-0.122 -0.001,-0.123 0.001,-0.123 0.001,-0.123 0.002,-0.122 0.005,-0.124 0.002,-0.045 0.002,-0.079 0.004,-0.123 0.007,-0.124 0.007,-0.124 0.008,-0.123 0.01,-0.124 0.01,-0.125 0.011,-0.124 0.013,-0.125 0.013,-0.119 0.001,-0.006 0.009,-0.125 0.012,-0.125 0.012,-0.124 0.014,-0.126 0.014,-0.125 0.016,-0.125 0.015,-0.126 0.018,-0.126 0.018,-0.125 0.019,-0.126 0.02,-0.126 0.021,-0.126 0.023,-0.126 0.022,-0.125 0.024,-0.126 0.025,-0.126 0.025,-0.126 0.027,-0.126 0.027,-0.127 0.029,-0.125 0.014,-0.06 0.014,-0.066 0.029,-0.126 0.031,-0.126 0.03,-0.126 0.032,-0.127 0.033,-0.125 0.032,-0.126 0.034,-0.125 0.036,-0.126 0.036,-0.125 0.036,-0.125 0.033,-0.112 0.005,-0.014 0.037,-0.126 0.037,-0.125 0.039,-0.125 0.04,-0.125 0.04,-0.125 0.041,-0.124 0.042,-0.124 0.086,-0.249 0.026,-0.071 0.06,-0.178 0.087,-0.248 0.09,-0.247 0.018,-0.046 0.073,-0.202 0.093,-0.246 0.096,-0.246 0.091,-0.223 0.008,-0.021 0.098,-0.245 0.102,-0.242 0.104,-0.242 0.107,-0.24 0.11,-0.238 0.112,-0.238 0.001,-0.004 0.106,-0.234 0.11,-0.238 0.112,-0.236 0.115,-0.233 0.117,-0.232 0.121,-0.23 0.122,-0.227 0.125,-0.225 0.052,-0.091 0.074,-0.133 0.128,-0.22 0.129,-0.219 0.133,-0.216 0.135,-0.213 0.136,-0.212 0.138,-0.206 0.141,-0.205 0.025,-0.034 0.111,-0.173 0.137,-0.204 0.141,-0.2 0.143,-0.196 0.003,-0.085 -0.083,0.017 -0.168,0.178 -0.169,0.179 -0.169,0.181 -0.141,0.153 -0.028,0.032 -0.16,0.193 -0.161,0.196 -0.159,0.198 -0.158,0.201 -0.158,0.203 -0.156,0.206 -0.156,0.209 -0.091,0.124 -0.062,0.087 -0.152,0.213 -0.151,0.217 -0.148,0.22 -0.148,0.22 -0.147,0.223 -0.144,0.225 -0.143,0.228 -0.139,0.225 -0.003,0.004 -0.132,0.235 -0.13,0.237 -0.128,0.239 -0.126,0.241 -0.124,0.242 -0.121,0.244 -0.01,0.021 -0.107,0.226 -0.114,0.248 -0.111,0.249 -0.088,0.204 -0.02,0.047 -0.103,0.254 -0.102,0.254 -0.069,0.182 -0.027,0.074 -0.09,0.257 -0.045,0.131 -0.042,0.129 -0.043,0.13 -0.042,0.13 -0.041,0.13 -0.04,0.131 -0.039,0.13 -0.004,0.014 -0.033,0.118 -0.038,0.13 -0.035,0.132 -0.036,0.131 -0.034,0.132 -0.033,0.132 -0.033,0.132 -0.031,0.132 -0.031,0.132 -0.03,0.132 -0.029,0.132 -0.015,0.07 -0.012,0.063 -0.026,0.133 -0.027,0.131 -0.024,0.133 -0.023,0.133 -0.023,0.133 -0.022,0.132 -0.02,0.133 -0.02,0.133 -0.018,0.132 -0.019,0.133 -0.016,0.132 -0.016,0.133 -0.015,0.132 -0.015,0.133 -0.012,0.132 -0.011,0.132 -0.012,0.132 -0.009,0.133 -0.009,0.131 -0.008,0.132 v 0.005 l -0.003,0.127 -0.001,0.132 v 0.131 0.132 l 0.001,0.13 0.003,0.131 0.004,0.131 0.004,0.131 0.007,0.129 0.004,0.082 0.002,0.048 0.01,0.13 0.009,0.129 0.012,0.129 0.012,0.128 0.014,0.129 0.014,0.128 0.016,0.127 0.016,0.126 0.003,0.021 0.023,0.106 0.028,0.126 0.025,0.108 0.249,-0.014"
         style="fill:#33306f;fill-opacity:1;fill-rule:evenodd;stroke:none;stroke-width:0.1"
         id="path52"
         inkscape:connector-curvature="0" /><path
         d="m 171.021,280.415 c 0.846,0.148 1.717,-0.8 1.946,-2.116 0.229,-1.315 -0.27,-2.502 -1.116,-2.649 -0.844,-0.147 -1.715,0.8 -1.945,2.116 -0.229,1.316 0.27,2.502 1.115,2.649"
         style="fill:#33306f;fill-opacity:1;fill-rule:evenodd;stroke:none;stroke-width:0.1"
         id="path54"
         inkscape:connector-curvature="0" /><path
         d="m 215.381,233.368 c -1.758,-2.288 -10.353,-4.726 -15.51,-13.035 -0.173,-0.28 -0.876,-4.373 1.919,-4.724 1.635,-0.206 6.809,0.547 12.87,3.609 3.604,1.821 10.311,4.698 13.016,5.879 2.736,1.195 1.625,1.861 -0.323,1.241 -1.713,-0.545 -7.827,-2.206 -7.827,-2.206 0,0 7.647,3.398 9.541,4.367 1.715,0.877 2.359,2.411 0.01,1.563 -1.924,-0.696 -9.227,-3.799 -9.227,-3.799 0,0 7.74,4.572 9.508,5.766 1.209,0.818 0.949,2.04 -1.423,0.851 -1.902,-0.955 -9.453,-4.737 -9.453,-4.737 0,0 6.016,4.003 7.61,5.065 1.784,1.189 1.819,2.753 -1.268,1.035 -2.326,-1.293 -7.993,-3.839 -11.164,-5.45 1.216,0.975 3.862,2.932 3.62,5.471 -0.046,0.491 -0.36,1.106 -1.899,-0.896"
         style="fill:#f7eed0;fill-opacity:1;fill-rule:evenodd;stroke:none;stroke-width:0.1"
         id="path56"
         inkscape:connector-curvature="0" /></g><path
       inkscape:connector-curvature="0"
       id="path66-7"
       style="fill:#e7e0ea;fill-opacity:1;fill-rule:nonzero;stroke:none;stroke-width:0.09999999"
       d="m 31.252586,85.664772 c -0.549999,0 -1.109,0.2 -1.5629,0.634 l -4.8481,4.646 c -0.313999,0.3 -0.707799,0.505 -1.1343,0.589 l -6.587899,1.296 c -1.7637,0.347 -2.4469,2.506 -1.2032,3.804 l 4.6454,4.847998 c 0.3007,0.314 0.5054,0.708 0.5898,1.135 l 1.2957,6.588 c 0.2254,1.147 1.217599,1.837 2.241,1.837 0.550399,0 1.109399,-0.2 1.563299,-0.635 l 4.8477,-4.645 c 0.313601,-0.301 0.707801,-0.505 1.1343,-0.589 l 6.587901,-1.296 c 1.7637,-0.347 2.446899,-2.507 1.203099,-3.804 l -4.6453,-4.847998 c -0.3008,-0.314 -0.5054,-0.708 -0.5894,-1.134 l -1.2957,-6.589 c -0.2254,-1.147 -1.2184,-1.837 -2.2414,-1.837" /><path
       inkscape:connector-curvature="0"
       id="path78"
       style="fill:#e7e0ea;fill-opacity:1;fill-rule:nonzero;stroke:none;stroke-width:0.09999999"
       d="m -15.088154,112.91522 c -0.3055,0 -0.604701,0.192 -0.6973,0.529 l -0.5637,2.05 c -0.0367,0.133 -0.1101,0.252 -0.212901,0.344 l -1.5804,1.422 c -0.4231,0.38 -0.2578,1.078 0.2906,1.229 l 2.050001,0.564 c 0.132399,0.037 0.2519,0.11 0.344499,0.212 l 1.421101,1.581 c 0.146899,0.163 0.340999,0.239 0.5328,0.239 0.3051,0 0.6043,-0.192 0.696899,-0.53 l 0.5637,-2.049 c 0.0363,-0.133 0.110101,-0.253 0.212501,-0.345 l 1.5808,-1.421 c 0.4227,-0.381 0.257899,-1.079 -0.291,-1.23 l -2.05,-0.563 c -0.132401,-0.037 -0.2519,-0.111 -0.3441,-0.213 l -1.4215,-1.58 c -0.146901,-0.164 -0.3406,-0.239 -0.532,-0.239" /><path
       inkscape:connector-curvature="0"
       id="path74-5"
       style="fill:#e7e0ea;fill-opacity:1;fill-rule:nonzero;stroke:none;stroke-width:0.09999999"
       d="m 117.30462,57.595444 c -0.305,0 -0.604,0.193 -0.697,0.53 l -0.563,2.05 c -0.037,0.133 -0.111,0.252 -0.213,0.344 l -1.58,1.422 c -0.424,0.38 -0.259,1.078 0.29,1.229 l 2.05,0.564 c 0.132,0.036 0.251,0.11 0.344,0.212 l 1.422,1.581 c 0.147,0.163 0.34,0.239 0.532,0.239 0.305,0 0.604,-0.193 0.697,-0.53 l 0.564,-2.05 c 0.036,-0.132 0.11,-0.252 0.212,-0.344 l 1.58099,-1.422 c 0.423,-0.38 0.258,-1.078 -0.291,-1.229 l -2.04999,-0.564 c -0.133,-0.036 -0.252,-0.11 -0.344,-0.213 l -1.421,-1.58 c -0.147,-0.163 -0.341,-0.239 -0.533,-0.239" /></g></svg>
